HIERARCHY
ROOT Hips
{
    OFFSET 0.000000 0.000000 0.000000
    CHANNELS 6 Xposition Yposition Zposition Zrotation Xrotation Yrotation
    JOINT Spine
    {
        OFFSET -0.000000 8.603107 0.000000
        CHANNELS 3 Zrotation Xrotation Yrotation
        JOINT Spine1
        {
            OFFSET -0.000000 23.906662 0.000000
            CHANNELS 3 Zrotation Xrotation Yrotation
            JOINT Neck
            {
                OFFSET -0.000000 23.808481 2.164407
                CHANNELS 3 Zrotation Xrotation Yrotation
                JOINT Head
                {
                    OFFSET -0.000000 14.688231 -2.098319
                    CHANNELS 3 Zrotation Xrotation Yrotation
                    End Site
                    {
                        OFFSET -0.000000 26.228985 0.000000
                    }
                }
            }
            JOINT LeftShoulder
            {
                OFFSET 4.178941 22.658146 -0.129871
                CHANNELS 3 Zrotation Xrotation Yrotation
                JOINT LeftArm
                {
                    OFFSET 9.497952 0.000000 0.000000
                    CHANNELS 3 Zrotation Xrotation Yrotation
                    JOINT LeftForeArm
                    {
                        OFFSET 38.855015 0.000000 0.000000
                        CHANNELS 3 Zrotation Xrotation Yrotation
                        JOINT LeftHand
                        {
                            OFFSET 24.940550 0.000000 0.000000
                            CHANNELS 3 Zrotation Xrotation Yrotation
                            End Site
                            {
                                OFFSET 15.737392 0.000000 0.000000
                            }
                        }
                    }
                }
            }
            JOINT RightShoulder
            {
                OFFSET -4.145384 22.658146 -0.129871
                CHANNELS 3 Zrotation Xrotation Yrotation
                JOINT RightArm
                {
                    OFFSET -9.497952 0.000000 0.000000
                    CHANNELS 3 Zrotation Xrotation Yrotation
                    JOINT RightForeArm
                    {
                        OFFSET -38.855015 0.000000 0.000000
                        CHANNELS 3 Zrotation Xrotation Yrotation
                        JOINT RightHand
                        {
                            OFFSET -24.940550 0.000000 0.000000
                            CHANNELS 3 Zrotation Xrotation Yrotation
                            End Site
                            {
                                OFFSET -15.737392 0.000000 0.000000
                            }
                        }
                    }
                }
            }
        }
    }
    JOINT LeftUpLeg
    {
        OFFSET 10.491594 0.000000 0.000000
        CHANNELS 3 Zrotation Xrotation Yrotation
        JOINT LeftLeg
        {
            OFFSET -0.000000 -46.080647 0.000000
            CHANNELS 3 Zrotation Xrotation Yrotation
            JOINT LeftFoot
            {
                OFFSET -0.000000 -50.184704 0.000000
                CHANNELS 3 Zrotation Xrotation Yrotation
                JOINT LeftToeBase
                {
                    OFFSET -0.000000 -6.819536 15.737392
                    CHANNELS 3 Zrotation Xrotation Yrotation
                    End Site
                    {
                        OFFSET -0.000000 0.000000 4.196638
                    }
                }
            }
        }
    }
    JOINT RightUpLeg
    {
        OFFSET -10.491594 0.000000 0.000000
        CHANNELS 3 Zrotation Xrotation Yrotation
        JOINT RightLeg
        {
            OFFSET -0.000000 -46.080647 0.000000
            CHANNELS 3 Zrotation Xrotation Yrotation
            JOINT RightFoot
            {
                OFFSET -0.000000 -50.184704 0.000000
                CHANNELS 3 Zrotation Xrotation Yrotation
                JOINT RightToeBase
                {
                    OFFSET -0.000000 -6.819536 15.737392
                    CHANNELS 3 Zrotation Xrotation Yrotation
                    End Site
                    {
                        OFFSET -0.000000 0.000000 4.196638
                    }
                }
            }
        }
    }
}
MOTION
Frames:    5
Frame Time:    0.008333
-7.708436    103.145477    40.853256    -1.148302    0.240998    93.975151    -0.459620    -6.684902    0.210338    0.274955    -1.789156    0.241591    2.994996    17.769701    0.114817    2.161709    -2.579293    0.518677    15.973827    -1.509474    -12.567403    -12.222346    -0.176806    7.846257    3.197347    -3.815369    -0.810684    2.794338    -3.696582    3.951349    -15.408348    0.924784    -7.167219    10.711849    -2.760885    2.738798    -0.777674    -4.573526    -1.603272    -0.483121    -4.577386    -1.664595    -0.552114    -0.269585    -0.315408    -2.837115    9.782128    -0.492279    1.587394    -9.788095    14.489805    0.000000    0.000000    0.000000    -0.403408    4.490309    -3.044883    2.383950    0.006465    -0.789573    -1.382427    -5.021891    -12.232148    0.000000    0.000000    0.000000    
-7.718555    103.144920    40.856625    -1.131954    0.241502    93.976921    -0.484407    -6.684575    0.217602    0.303807    -1.760179    0.250479    3.028983    17.741987    0.101689    2.094463    -2.556727    0.493229    15.988306    -1.526971    -12.590627    -12.251415    -0.157271    7.832422    3.172570    -3.710303    -0.745464    2.806573    -3.597673    3.763530    -15.396754    0.902881    -7.202398    10.699329    -2.772133    2.766874    -0.740968    -4.480479    -1.610549    -0.529379    -4.482955    -1.716814    -0.548180    -0.262019    -0.318693    -2.842581    9.788676    -0.515679    1.602590    -9.796040    14.525044    0.000000    0.000000    0.000000    -0.398556    4.498239    -3.063796    2.382038    0.009104    -0.787610    -1.389598    -5.019912    -12.231534    0.000000    0.000000    0.000000    
-7.725316    103.144112    40.857216    -1.134994    0.245750    93.980797    -0.488554    -6.698314    0.208800    0.299251    -1.742913    0.242222    3.002320    17.748032    0.110212    2.133952    -2.573915    0.509247    15.998009    -1.521904    -12.572690    -12.249422    -0.214855    7.813631    3.174846    -3.703811    -0.755549    2.603293    -3.598715    3.712465    -15.397254    0.876466    -7.184803    10.709187    -2.787887    2.767733    -0.738117    -4.452188    -1.622673    -0.509119    -4.455041    -1.709321    -0.554448    -0.270132    -0.311093    -2.834733    9.790874    -0.518628    1.591390    -9.799158    14.515369    0.000000    0.000000    0.000000    -0.403939    4.491304    -3.064330    2.384880    0.008247    -0.806850    -1.383703    -5.025664    -12.214101    0.000000    0.000000    0.000000    
-7.731133    103.144577    40.857750    -1.127459    0.246670    93.988197    -0.509326    -6.701217    0.213674    0.325771    -1.721897    0.248585    3.007993    17.712017    0.102107    2.126729    -2.536768    0.497996    16.009796    -1.541820    -12.582334    -12.264010    -0.266104    7.790766    3.180372    -3.762837    -0.774208    2.573347    -3.656473    3.787770    -15.409422    0.866037    -7.211709    10.715769    -2.754880    2.767222    -0.718542    -4.480725    -1.600398    -0.548017    -4.482505    -1.726479    -0.554126    -0.268645    -0.315494    -2.832560    9.794545    -0.525706    1.588710    -9.795136    14.511233    0.000000    0.000000    0.000000    -0.403534    4.496493    -3.064676    2.380592    0.009997    -0.817190    -1.387431    -5.020541    -12.202502    0.000000    0.000000    0.000000    
-7.739444    103.144142    40.859768    -1.128146    0.243892    93.993134    -0.509333    -6.703091    0.213262    0.319339    -1.717853    0.247842    3.033425    17.729969    0.099540    2.101158    -2.577868    0.492559    16.037676    -1.543613    -12.574490    -12.286045    -0.312154    7.764055    3.149980    -3.749557    -0.773013    2.614198    -3.643647    3.718972    -15.396179    0.858757    -7.216265    10.708539    -2.505202    2.748537    -0.714602    -4.633655    -1.545256    -0.563349    -4.634734    -1.740287    -0.546189    -0.276988    -0.328660    -2.844446    9.797256    -0.521207    1.574762    -9.802301    14.524363    0.000000    0.000000    0.000000    -0.397683    4.489090    -3.083928    2.376648    0.013843    -0.794897    -1.379280    -5.025532    -12.207413    0.000000    0.000000    0.000000    
